<mxfile host="app.diagrams.net" modified="2023-10-18T17:59:48.376Z" agent="Mozilla/5.0 (Macintosh; Intel Mac OS X 10_15_7) AppleWebKit/537.36 (KHTML, like Gecko) Chrome/117.0.0.0 Safari/537.36" version="22.0.4" etag="CRtslB-BUjDCf4HCRvX_" type="github">
  <diagram name="Страница — 1" id="kDT6TiqW7RfJ01nlxn5C">
    <mxGraphModel>
      <root>
        <mxCell id="0" />
        <mxCell id="1" parent="0" />
      </root>
    </mxGraphModel>
  </diagram>
</mxfile>
